<svg width="28" height="22" viewBox="0 0 28 22" fill="none" xmlns="http://www.w3.org/2000/svg">
<path fill-rule="evenodd" clip-rule="evenodd" d="M4.91666 0.333008C2.70753 0.333008 0.916664 2.12387 0.916664 4.33301V17.6663C0.916664 19.8755 2.70752 21.6663 4.91666 21.6663H23.5833C25.7925 21.6663 27.5833 19.8755 27.5833 17.6663V4.33301C27.5833 2.12387 25.7925 0.333008 23.5833 0.333008H4.91666ZM4.68402 3.0199C4.75957 3.00661 4.83731 2.99967 4.91666 2.99967H23.5833C23.6627 2.99967 23.7404 3.00661 23.816 3.01991L14.25 9.39723L4.68402 3.0199ZM3.58333 5.49104V17.6663C3.58333 18.4027 4.18028 18.9997 4.91666 18.9997H23.5833C24.3197 18.9997 24.9167 18.4027 24.9167 17.6663V5.49107L14.9896 12.1091C14.5417 12.4077 13.9583 12.4077 13.5104 12.1091L3.58333 5.49104Z" fill="#A0ABBB"/>
</svg>
