<svg width="59" height="26" viewBox="0 0 59 26" fill="none" xmlns="http://www.w3.org/2000/svg">
<path d="M2 9.07689C3.44948 11.8962 8.17679 24.8333 13.5803 22.8847C15.5172 22.1863 16.7207 18.4662 16.9406 16.5993C17.1558 14.7718 16.3264 12.632 16.0343 10.8329C15.8901 9.94474 14.7091 7.72926 15.4824 8.19078C18.4843 9.98232 22.7807 20.6476 26.1842 20.2926C29.7647 19.9191 31.5074 11.9405 31.1603 9.09501C30.9187 7.1145 29.7235 1.30771 30.4976 3.14613C32.2263 7.2518 34.3474 15.9816 38.9813 17.7787C44.9966 20.1116 52.1329 14.6269 56.3027 11.3638" stroke="url(#paint0_linear_1_612)" stroke-width="4" stroke-linecap="round"/>
<defs>
<linearGradient id="paint0_linear_1_612" x1="5.66976" y1="7.53172" x2="48.4121" y2="-2.95837" gradientUnits="userSpaceOnUse">
<stop stop-color="#B71471"/>
</linearGradient>
</defs>
</svg>
