<svg width="43" height="42" viewBox="0 0 43 42" fill="none" xmlns="http://www.w3.org/2000/svg">
<path d="M28.2851 18.4609C27.8206 17.9392 27.2551 17.5392 26.6308 17.2907C26.0065 17.0422 25.3392 16.9516 24.6787 17.0256C24.0181 17.0996 23.3812 17.3362 22.8152 17.718C22.2492 18.0998 21.7687 18.6169 21.4093 19.2309C21.05 18.6167 20.5695 18.0995 20.0036 17.7176C19.4376 17.3357 18.8006 17.099 18.14 17.025C17.4794 16.951 16.8121 17.0417 16.1877 17.2903C15.5634 17.5389 14.998 17.939 14.5335 18.4609C13.6954 19.4035 13.2262 20.6695 13.2262 21.9879C13.2262 23.3063 13.6954 24.5722 14.5335 25.5149L21.4093 33.1999L28.2869 25.5159C29.1244 24.5726 29.593 23.3064 29.5927 21.988C29.5923 20.6696 29.123 19.4037 28.2851 18.4609V18.4609Z" stroke="#B71471" stroke-width="2" stroke-miterlimit="10" stroke-linecap="round" stroke-linejoin="round"/>
<path d="M37.776 41H5.04265C4.07804 41 3.15295 40.5786 2.47087 39.8284C1.7888 39.0783 1.40561 38.0609 1.40561 37V1H15.9538L20.5001 9H41.413V37C41.413 38.0609 41.0298 39.0783 40.3478 39.8284C39.6657 40.5786 38.7406 41 37.776 41Z" stroke="#B71471" stroke-width="2" stroke-miterlimit="10" stroke-linecap="round" stroke-linejoin="round"/>
</svg>
