<svg width="19" height="28" viewBox="0 0 19 28" fill="none" xmlns="http://www.w3.org/2000/svg">
<path fill-rule="evenodd" clip-rule="evenodd" d="M9.49999 3.33366C5.81809 3.33366 2.83332 6.31843 2.83332 10.0003C2.83332 13.7175 4.98225 19.1567 9.49999 24.0741C14.0177 19.1567 16.1667 13.7175 16.1667 10.0003C16.1667 6.31843 13.1819 3.33366 9.49999 3.33366ZM0.166656 10.0003C0.166656 4.84567 4.34533 0.666992 9.49999 0.666992C14.6546 0.666992 18.8333 4.84567 18.8333 10.0003C18.8333 14.8699 15.9474 21.4385 10.4428 26.9431C9.9221 27.4638 9.07788 27.4638 8.55718 26.9431C3.05258 21.4385 0.166656 14.8699 0.166656 10.0003Z" fill="#A0ABBB"/>
<path fill-rule="evenodd" clip-rule="evenodd" d="M9.49999 11.3337C10.2364 11.3337 10.8333 10.7367 10.8333 10.0003C10.8333 9.26395 10.2364 8.66699 9.49999 8.66699C8.76361 8.66699 8.16666 9.26395 8.16666 10.0003C8.16666 10.7367 8.76361 11.3337 9.49999 11.3337ZM9.49999 14.0003C11.7091 14.0003 13.5 12.2095 13.5 10.0003C13.5 7.79119 11.7091 6.00033 9.49999 6.00033C7.29085 6.00033 5.49999 7.79119 5.49999 10.0003C5.49999 12.2095 7.29085 14.0003 9.49999 14.0003Z" fill="#A0ABBB"/>
</svg>
