<svg width="37" height="36" viewBox="0 0 37 36" fill="none" xmlns="http://www.w3.org/2000/svg">
<path d="M11.625 10.5H25.875V7.5C25.875 4.5 24.75 3 21.375 3H16.125C12.75 3 11.625 4.5 11.625 7.5V10.5Z" stroke="#A0ABBB" stroke-width="1.8" stroke-linecap="round" stroke-linejoin="round"/>
<path d="M24.75 22.5V28.5C24.75 31.5 23.25 33 20.25 33H17.25C14.25 33 12.75 31.5 12.75 28.5V22.5H24.75Z" stroke="#A0ABBB" stroke-width="1.8" stroke-linecap="round" stroke-linejoin="round"/>
<path d="M32.25 15V22.5C32.25 25.5 30.75 27 27.75 27H24.75V22.5H12.75V27H9.75C6.75 27 5.25 25.5 5.25 22.5V15C5.25 12 6.75 10.5 9.75 10.5H27.75C30.75 10.5 32.25 12 32.25 15Z" stroke="#A0ABBB" stroke-width="1.8" stroke-linecap="round" stroke-linejoin="round"/>
<path d="M26.25 22.5H24.435H11.25" stroke="#A0ABBB" stroke-width="1.8" stroke-linecap="round" stroke-linejoin="round"/>
<path d="M11.25 16.5H15.75" stroke="#A0ABBB" stroke-width="1.8" stroke-linecap="round" stroke-linejoin="round"/>
</svg>
